<?xml version="1.0" encoding="UTF-8" standalone="no"?>
<!-- Created with Inkscape (http://www.inkscape.org/) -->

<svg
   width="120mm"
   height="9.5215015mm"
   viewBox="0 0 120 9.5215016"
   version="1.1"
   id="svg5"
   inkscape:version="1.2 (dc2aedaf03, 2022-05-15)"
   sodipodi:docname="baustatik-logo.svg"
   xml:space="preserve"
   xmlns:inkscape="http://www.inkscape.org/namespaces/inkscape"
   xmlns:sodipodi="http://sodipodi.sourceforge.net/DTD/sodipodi-0.dtd"
   xmlns="http://www.w3.org/2000/svg"
   xmlns:svg="http://www.w3.org/2000/svg"><sodipodi:namedview
     id="namedview7"
     pagecolor="#c8c8c8"
     bordercolor="#646464"
     borderopacity="1"
     inkscape:pageshadow="0"
     inkscape:pageopacity="0"
     inkscape:pagecheckerboard="0"
     inkscape:document-units="mm"
     showgrid="true"
     inkscape:zoom="2.0396855"
     inkscape:cx="203.70788"
     inkscape:cy="49.272303"
     inkscape:window-width="1920"
     inkscape:window-height="1027"
     inkscape:window-x="1920"
     inkscape:window-y="21"
     inkscape:window-maximized="1"
     inkscape:current-layer="g5549"
     inkscape:showpageshadow="2"
     inkscape:deskcolor="#c8c8c8"><inkscape:grid
       type="xygrid"
       id="grid824"
       units="mm"
       spacingx="1"
       spacingy="1"
       originx="16.164143"
       originy="-71.577735" /></sodipodi:namedview><defs
     id="defs2"><clipPath
       clipPathUnits="userSpaceOnUse"
       id="clipPath9589"><path
         d="M 0,0 H 11811.6 V 3353.76 H 0 Z"
         id="path9587" /></clipPath></defs><g
     inkscape:label="Layer 1"
     inkscape:groupmode="layer"
     id="layer1"
     transform="translate(32.582071,-40.788867)"><g
       id="g5549"
       transform="translate(-46.062795,-48.423856)"><g
         id="g9417"
         transform="matrix(0.35277777,0,0,0.35277777,92.286297,90.731113)"><g
           id="g9419"><path
             d="M 1.496,12.832 C 4.344,7.398 9.023,4.012 9.023,4.012"
             style="fill:none;stroke:#2c1e74;stroke-width:0.375001;stroke-linecap:round;stroke-linejoin:round;stroke-miterlimit:4;stroke-dasharray:none;stroke-opacity:1"
             id="path9421" /></g><g
           id="g9423"><path
             d="M 4.156,12.969 C 6.809,8.109 7.785,7.293 8.727,6.449 9.672,5.605 11.582,4.035 11.582,4.035"
             style="fill:none;stroke:#2c1e74;stroke-width:0.375001;stroke-linecap:round;stroke-linejoin:round;stroke-miterlimit:4;stroke-dasharray:none;stroke-opacity:1"
             id="path9425" /></g><g
           id="g9427"><path
             d="M 6.703,13.125 C 9.812,7.578 11.746,6.008 12.797,5.289 13.852,4.57 14.422,4.191 14.422,4.191"
             style="fill:none;stroke:#2c1e74;stroke-width:0.375001;stroke-linecap:round;stroke-linejoin:round;stroke-miterlimit:4;stroke-dasharray:none;stroke-opacity:1"
             id="path9429" /></g><g
           id="g9431"><path
             d="M 9.273,13.48 C 12.605,6.402 16.801,4.664 16.801,4.664"
             style="fill:none;stroke:#2c1e74;stroke-width:0.375001;stroke-linecap:round;stroke-linejoin:round;stroke-miterlimit:4;stroke-dasharray:none;stroke-opacity:1"
             id="path9433" /></g><g
           id="g9435"><path
             d="M 11.93,13.965 C 13.957,9.523 15.824,7.598 16.77,6.754 17.711,5.91 19.473,5.258 19.473,5.258"
             style="fill:none;stroke:#2c1e74;stroke-width:0.375001;stroke-linecap:round;stroke-linejoin:round;stroke-miterlimit:4;stroke-dasharray:none;stroke-opacity:1"
             id="path9437" /></g><g
           id="g9439"><path
             d="m 14.578,14.641 c 3.11,-5.547 4.445,-6.723 5.496,-7.442 1.055,-0.715 2.223,-1.258 2.223,-1.258"
             style="fill:none;stroke:#2c1e74;stroke-width:0.375001;stroke-linecap:round;stroke-linejoin:round;stroke-miterlimit:4;stroke-dasharray:none;stroke-opacity:1"
             id="path9441" /></g><g
           id="g9443"><path
             d="M 19.469,16.578 C 21.719,13.09 24.316,9.816 27.078,7.73"
             style="fill:none;stroke:#2c1e74;stroke-width:0.375001;stroke-linecap:round;stroke-linejoin:round;stroke-miterlimit:4;stroke-dasharray:none;stroke-opacity:1"
             id="path9445" /></g><g
           id="g9447"><path
             d="M 17.094,15.469 C 20.012,10.012 22.312,8.48 23.367,7.762 24.418,7.047 24.805,6.848 24.805,6.848"
             style="fill:none;stroke:#2c1e74;stroke-width:0.375001;stroke-linecap:round;stroke-linejoin:round;stroke-miterlimit:4;stroke-dasharray:none;stroke-opacity:1"
             id="path9449" /></g><g
           id="g9451"><path
             d="m 1.496,12.832 c 12.316,0.48 14.203,2.48 17.973,3.746"
             style="fill:none;stroke:#2c1e74;stroke-width:0.375001;stroke-linecap:round;stroke-linejoin:round;stroke-miterlimit:4;stroke-dasharray:none;stroke-opacity:1"
             id="path9453" /></g><g
           id="g9455"><path
             d="m 2.574,10.895 c 12.321,0.48 14.207,2.48 17.973,3.746"
             style="fill:none;stroke:#2c1e74;stroke-width:0.375001;stroke-linecap:round;stroke-linejoin:round;stroke-miterlimit:4;stroke-dasharray:none;stroke-opacity:1"
             id="path9457" /></g><g
           id="g9459"><path
             d="M 3.715,9.375 C 14.832,9 17.297,11.469 21.762,13.219"
             style="fill:none;stroke:#2c1e74;stroke-width:0.375001;stroke-linecap:round;stroke-linejoin:round;stroke-miterlimit:4;stroke-dasharray:none;stroke-opacity:1"
             id="path9461" /></g><g
           id="g9463"><path
             d="m 4.895,7.918 c 12.011,-0.32 13.464,1.949 17.972,3.746"
             style="fill:none;stroke:#2c1e74;stroke-width:0.375001;stroke-linecap:round;stroke-linejoin:round;stroke-miterlimit:4;stroke-dasharray:none;stroke-opacity:1"
             id="path9465" /></g><g
           id="g9467"><path
             d="m 5.969,6.734 c 11.426,-0.425 12.664,1.422 17.972,3.75"
             style="fill:none;stroke:#2c1e74;stroke-width:0.375001;stroke-linecap:round;stroke-linejoin:round;stroke-miterlimit:4;stroke-dasharray:none;stroke-opacity:1"
             id="path9469" /></g><g
           id="g9471"><path
             d="M 7.055,5.797 C 18.016,5.359 19.762,7.09 25.027,9.543"
             style="fill:none;stroke:#2c1e74;stroke-width:0.375001;stroke-linecap:round;stroke-linejoin:round;stroke-miterlimit:4;stroke-dasharray:none;stroke-opacity:1"
             id="path9473" /></g><g
           id="g9475"><path
             d="M 8.184,4.754 C 17.656,4.477 25.199,8.051 26.156,8.5"
             style="fill:none;stroke:#2c1e74;stroke-width:0.375001;stroke-linecap:round;stroke-linejoin:round;stroke-miterlimit:4;stroke-dasharray:none;stroke-opacity:1"
             id="path9477" /></g><g
           id="g9479"><path
             d="M 9.082,3.98 C 17.809,3.762 22.16,5.992 27.055,7.727"
             style="fill:none;stroke:#2c1e74;stroke-width:0.375001;stroke-linecap:round;stroke-linejoin:round;stroke-miterlimit:4;stroke-dasharray:none;stroke-opacity:1"
             id="path9481" /></g><g
           id="g9483"><path
             d="M 14.461,0.188 V 7.66 L 13.254,5.793 h 2.418 L 14.461,7.66"
             style="fill:#2c1e74;fill-opacity:1;fill-rule:nonzero;stroke:#2c1e74;stroke-width:0.375001;stroke-linecap:round;stroke-linejoin:round;stroke-miterlimit:4;stroke-dasharray:none;stroke-opacity:1"
             id="path9485" /></g><g
           id="g9487"><path
             d="m 0.188,14.645 1.269,-1.684 1.266,1.684 H 0.188"
             style="fill:#2c1e74;fill-opacity:1;fill-rule:nonzero;stroke:#2c1e74;stroke-width:0.375001;stroke-linecap:round;stroke-linejoin:round;stroke-miterlimit:4;stroke-dasharray:none;stroke-opacity:1"
             id="path9489" /></g><g
           id="g9491"><path
             d="m 18.297,18.367 1.265,-1.679 1.27,1.679 h -2.535"
             style="fill:#2c1e74;fill-opacity:1;fill-rule:nonzero;stroke:#2c1e74;stroke-width:0.375001;stroke-linecap:round;stroke-linejoin:round;stroke-miterlimit:4;stroke-dasharray:none;stroke-opacity:1"
             id="path9493" /></g><g
           id="g9495"><path
             d="m 25.879,9.461 1.266,-1.68 1.269,1.68 h -2.535"
             style="fill:#2c1e74;fill-opacity:1;fill-rule:nonzero;stroke:#2c1e74;stroke-width:0.375001;stroke-linecap:round;stroke-linejoin:round;stroke-miterlimit:4;stroke-dasharray:none;stroke-opacity:1"
             id="path9497" /></g><text
           xml:space="preserve"
           transform="translate(32.858194,5.069286)"
           style="font-variant:normal;font-weight:bold;font-size:5px;font-family:Arial;-inkscape-font-specification:Arial-BoldMT;writing-mode:lr-tb;fill:#000000;fill-opacity:1;fill-rule:nonzero;stroke:none"
           id="text9503"><tspan
             x="0 3.0542011 5.8349643 8.6157274 11.669929 13.05909 14.72413 17.504894 18.894054 21.948256 23.613295 25.002457 28.33742 31.118183 32.507343 35.288109 38.342308 41.12307 43.903835 45.292995 48.073761 51.12796 54.182163 55.571323 58.255524 61.036285 63.817051 66.871254 69.925453 72.979652 74.368813 77.423012 80.477219"
             y="0"
             sodipodi:role="line"
             id="tspan9499">Faculty of Science and Technology</tspan><tspan
             x="0 3.610842 6.3916054 9.4458065 12.22657 14.172372 15.837412 20.283215 23.063978 26.118179 27.78322 29.17238 32.226582 33.891621 35.280785 38.891624 40.280785 43.06155 44.45071 45.83987 47.229031 50.563995 53.618195 56.672398 58.061558 61.115761 63.896523 66.677284 68.623085 70.012253 73.066452"
             y="6.295609"
             sodipodi:role="line"
             id="tspan9501">Department of Civil Engineering</tspan></text><text
           xml:space="preserve"
           transform="translate(32.858194,17.660504)"
           style="font-variant:normal;font-weight:normal;font-size:5px;font-family:Arial;-inkscape-font-specification:ArialMT;writing-mode:lr-tb;fill:#000000;fill-opacity:1;fill-rule:nonzero;stroke:none"
           id="text9507"><tspan
             x="0 3.610842 6.3916054 9.172369 10.283209 11.94825 13.33741 16.118174 17.507336 18.896496 22.231459 23.620619 25.28566 28.066423 30.566425 31.955585 34.736347 36.40139 39.182152 40.292992 41.682156 45.847195 48.62796 51.12796 53.908722 56.689487 59.470249 60.581093 63.081093"
             y="0"
             sodipodi:role="line"
             id="tspan9505">Chair of Structural Mechanics</tspan></text></g><g
         id="g9581"
         transform="matrix(0.00206993,0,0,-0.00206993,13.668493,97.451552)"
         style="stroke-width:17.0429"><g
           id="g9583"
           style="stroke-width:17.0429"><g
             id="g9585"
             clip-path="url(#clipPath9589)"
             style="stroke-width:17.0429"><g
               id="g9668"><path
                 d="m 11360.9,1199.51 h 164.9 v 770.41 h 243.3 l 42.5,134.64 h -715 v -134.64 h 264.3 z m -514.1,962.65 c 45.4,0 83.5,37.44 83.5,83.52 0,46.8 -38.1,85.68 -83.5,85.68 -46.8,0 -84.2,-38.88 -84.2,-85.68 0,-46.08 37.4,-83.52 84.2,-83.52 z m -262.8,0 c 46.8,0 85.7,37.44 85.7,83.52 0,46.8 -38.9,85.68 -85.7,85.68 -45.4,0 -83.5,-38.88 -83.5,-85.68 0,-46.08 38.1,-83.52 83.5,-83.52 z m 19.4,-601.2 h 224 l -63.4,179.28 c -24.5,69.12 -36.7,110.16 -45.4,140.4 h -2.1 c -8.7,-31.68 -22.3,-71.28 -46.8,-141.84 z m -302.4,-361.45 350.7,909.37 h 126 l 362.9,-909.37 h -174.3 l -87.8,226.81 h -323.3 l -85,-226.81 z m -388.75,0 h 164.85 v 770.41 h 243.4 l 42.5,134.64 h -714.28 v -134.64 h 263.53 z m -558.01,0 h 164.88 v 905.05 h -164.88 z m -776.15,64.81 c 68.39,-48.24 167.75,-78.48 273.59,-78.48 185.04,0 322.56,98.63 322.56,259.91 0,286.57 -391.68,264.25 -391.68,430.57 0,72.72 60.49,97.92 123.85,97.92 71.27,0 143.99,-20.88 215.99,-58.32 v 151.2 c -49.69,25.2 -128.16,45.36 -221.77,45.36 -187.92,0 -293.75,-116.64 -293.75,-249.84 0,-275.76 391.67,-253.44 391.67,-430.56 0,-78.49 -75.59,-107.28 -151.19,-107.28 -82.8,0 -151.2,28.79 -205.2,65.52 z m -600.49,423.36 v 282.24 h 75.6 c 48.96,0 79.2,-10.8 101.52,-25.92 39.6,-23.76 60.49,-66.24 60.49,-114.48 0,-56.16 -24.49,-97.2 -63.37,-119.52 -27.36,-15.12 -57.6,-22.32 -100.08,-22.32 z m -164.89,-488.17 h 164.89 v 353.53 h 77.76 c 22.32,-5.75 55.44,-43.21 99.36,-123.84 l 130.32,-229.69 h 190.08 l -151.19,264.25 c -48.26,82.08 -85.69,131.76 -113.05,146.87 v 2.89 c 104.39,32.4 177.12,111.6 177.12,232.56 0,92.16 -38.17,175.68 -134.64,221.04 -47.52,23.76 -108.72,37.44 -193.68,37.44 h -246.97 z m -689.75,0 h 501.12 v 134.65 h -336.24 v 259.92 h 289.45 V 1728 h -289.45 v 241.92 h 290.88 l 43.92,134.64 h -499.68 z m -622.8,-5.75 h 133.2 l 370.08,910.8 h -179.28 l -187.92,-490.32 c -28.8,-72.72 -49.68,-133.2 -67.69,-185.04 h -2.14 c -19.45,53.28 -40.34,113.76 -66.25,184.32 l -189.36,491.04 h -180 z m -653.76,5.75 h 164.17 v 905.05 H 5846.4 Z m -1036.08,0 h 164.88 v 513.37 c 0,50.4 0,102.96 -2.16,140.4 h 2.16 c 30.24,-43.2 61.92,-88.56 102.24,-138.96 l 399.6,-514.81 h 151.2 v 905.05 h -166.32 v -481.68 c 0,-49.68 0,-104.4 2.88,-152.64 h -2.88 c -27.36,41.04 -60.48,86.4 -101.52,140.39 l -386.64,493.93 h -163.44 z m -588.24,-13.67 c 166.32,0 285.12,57.6 341.28,174.24 23.04,46.8 33.84,107.28 33.84,177.84 v 566.64 h -164.88 v -554.4 c 0,-49.68 -7.92,-90.72 -24.48,-123.84 -31.68,-64.8 -95.04,-101.52 -185.76,-101.52 -90.72,0 -153.36,36.72 -185.04,101.52 -16.56,33.12 -25.2,74.16 -25.2,122.4 v 555.84 h -164.88 v -566.64 c 0,-69.12 11.52,-129.6 34.56,-176.4 54.72,-118.08 173.52,-175.68 340.56,-175.68 v 0"
                 style="fill:#231f20;fill-opacity:1;fill-rule:evenodd;stroke:none;stroke-width:17.0429"
                 id="path9591" /><path
                 d="m 7326.01,13.6797 h 164.87 V 527.75 c 0,51.129 0,102.961 -2.16,140.41 h 2.16 c 30.23,-42.488 61.92,-87.84 102.25,-138.961 L 7992.71,13.6797 h 151.22 V 919.441 H 7977.6 V 437.039 c 0,-49.68 0,-104.398 2.88,-152.641 h -2.88 c -27.37,41.043 -60.48,86.403 -101.53,140.403 l -385.91,494.64 h -164.15 z m -689.77,0 h 501.85 V 148.32 h -336.98 v 259.918 h 290.17 v 134.641 h -290.17 v 241.922 h 291.6 l 43.93,134.64 h -500.4 z M 6427.44,453.59 H 6261.12 V 166.32 c -35.28,-16.558 -90.72,-27.359 -151.2,-27.359 -195.13,0 -308.16,127.437 -308.16,322.559 0,192.949 114.48,327.601 333.36,327.601 97.2,0 178.56,-25.199 249.84,-60.492 v 153.359 c -68.4,25.211 -156.96,45.371 -262.08,45.371 -300.96,0 -496.8,-201.609 -496.8,-476.648 C 5626.08,190.801 5801.76,0 6097.68,0 c 126.71,0 247.68,31.6797 329.76,72.7188 V 453.59 Z M 4974.48,13.6797 h 501.84 V 148.32 h -336.96 v 259.918 h 290.16 v 134.641 h -290.16 v 241.922 h 291.6 l 43.92,134.64 h -500.4 V 13.6797 Z m -385.2,0 h 165.6 V 919.441 h -165.6 z M 3813.12,78.4805 C 3882.24,30.2383 3980.88,0 4086.72,0 c 185.76,0 322.56,98.6289 322.56,259.91 0,287.289 -390.96,264.961 -390.96,431.289 0,72.723 59.76,97.922 123.12,97.922 72,0 144.72,-20.883 216,-58.32 v 151.187 c -49.68,25.211 -128.16,45.371 -221.04,45.371 -188.64,0 -294.48,-116.648 -294.48,-249.839 0,-276.481 391.68,-254.161 391.68,-431.282 0,-78.488 -75.6,-107.277 -151.2,-107.277 -82.08,0 -151.2,28.789 -204.48,65.519 l -64.8,-125.9995 v 0"
                 style="fill:#231f20;fill-opacity:1;fill-rule:evenodd;stroke:none;stroke-width:17.0429"
                 id="path9593" /><path
                 d="M 0,2104.56 H 1249.2 V 848.879 c 0,-498.25 590.4,-329.758 590.4,0 V 2204.64 l -245.52,-184.32 -7.92,682.56 881.28,650.88 874.08,-650.88 v -682.56 l -253.44,191.52 V 13.6797 H 1839.6 V 182.16 C 1333.44,-147.602 0,-101.52 0,1017.36 v 1087.2"
                 style="fill:#000080;fill-opacity:1;fill-rule:evenodd;stroke:none;stroke-width:17.0429"
                 id="path9595" /></g></g></g></g><rect
         style="font-variation-settings:normal;vector-effect:none;fill:none;fill-opacity:1;fill-rule:evenodd;stroke:none;stroke-width:0.264583;stroke-linecap:round;stroke-linejoin:round;stroke-miterlimit:4;stroke-dasharray:none;stroke-dashoffset:0;stroke-opacity:1;-inkscape-stroke:none;stop-color:#000000"
         id="rect9659"
         width="120"
         height="9.5215015"
         x="13.480724"
         y="89.212723" /></g></g></svg>
