<?xml version="1.0" encoding="UTF-8" standalone="no"?>
<!-- Created with Inkscape (http://www.inkscape.org/) -->

<svg
   width="80.457558mm"
   height="48.253155mm"
   viewBox="0 0 80.457557 48.253155"
   version="1.1"
   id="svg5"
   inkscape:version="1.2.1 (9c6d41e410, 2022-07-14)"
   sodipodi:docname="gamm-logo.svg"
   xml:space="preserve"
   xmlns:inkscape="http://www.inkscape.org/namespaces/inkscape"
   xmlns:sodipodi="http://sodipodi.sourceforge.net/DTD/sodipodi-0.dtd"
   xmlns="http://www.w3.org/2000/svg"
   xmlns:svg="http://www.w3.org/2000/svg"><sodipodi:namedview
     id="namedview7"
     pagecolor="#c8c8c8"
     bordercolor="#646464"
     borderopacity="1"
     inkscape:pageshadow="0"
     inkscape:pageopacity="0"
     inkscape:pagecheckerboard="0"
     inkscape:document-units="mm"
     showgrid="false"
     inkscape:zoom="1.6407956"
     inkscape:cx="94.161639"
     inkscape:cy="88.067035"
     inkscape:window-width="1920"
     inkscape:window-height="1027"
     inkscape:window-x="1920"
     inkscape:window-y="21"
     inkscape:window-maximized="1"
     inkscape:current-layer="layer1"
     inkscape:showpageshadow="2"
     inkscape:deskcolor="#c8c8c8"><inkscape:grid
       type="xygrid"
       id="grid824"
       units="mm"
       spacingx="1"
       spacingy="1"
       originx="-32.259124"
       originy="-107.71573" /></sodipodi:namedview><defs
     id="defs2" /><g
     inkscape:label="Layer 1"
     inkscape:groupmode="layer"
     id="layer1"
     transform="translate(-32.259124,-107.71573)"><path
       style="font-variation-settings:normal;opacity:1;vector-effect:none;fill:#1b8028;fill-opacity:1;stroke:#1b8028;stroke-width:0.264583;stroke-linecap:round;stroke-linejoin:round;stroke-miterlimit:4;stroke-dasharray:none;stroke-dashoffset:0;stroke-opacity:1;-inkscape-stroke:none;stop-color:#000000;stop-opacity:1"
       d="m 80.394859,130.86924 v -23.02122 h 6.853012 l 9.03522,15.64945 8.953789,-15.50842 h 7.34751 v 23.06003 h -6.29203 v -11.94597 l -6.815618,11.805 h -5.903088 l -6.797355,-11.77336 v 11.80299 z"
       id="path1019" /><path
       style="font-variation-settings:normal;opacity:1;vector-effect:none;fill:#1b8028;fill-opacity:1;stroke:#1b8028;stroke-width:0.264583;stroke-linecap:round;stroke-linejoin:round;stroke-miterlimit:4;stroke-dasharray:none;stroke-dashoffset:0;stroke-opacity:1;-inkscape-stroke:none;stop-color:#000000;stop-opacity:1"
       d="m 80.394859,155.65553 v -23.17755 h 6.853012 l 9.03522,15.75572 8.953789,-15.61373 h 7.34751 v 23.21662 h -6.29203 V 143.8095 l -6.815618,11.88516 h -5.903088 l -6.797355,-11.85332 v 11.88315 z"
       id="path1021" /><path
       style="font-variation-settings:normal;opacity:1;vector-effect:none;fill:#1b8028;fill-opacity:1;stroke:#1b8028;stroke-width:0.264583;stroke-linecap:round;stroke-linejoin:round;stroke-miterlimit:4;stroke-dasharray:none;stroke-dashoffset:0;stroke-opacity:1;-inkscape-stroke:none;stop-color:#000000;stop-opacity:1"
       d="m 69.436048,121.16689 c 0,0 -4.390482,-5.84473 -9.52666,-6.71014 -5.136176,-0.8654 -10.025366,-0.53378 -13.419428,1.9784 -3.394065,2.51218 -7.163468,5.03857 -7.860892,13.52936 -0.697424,8.4908 2.734697,13.55249 7.351898,16.91368 4.617202,3.36118 13.260164,4.01375 18.019375,0.63912 6.993728,-4.95906 7.348751,-9.65181 7.348751,-9.65181 h -5.67162 l 1.69453,5.0649 h -5.387928 l -2.042915,-4.7153 h -8.618274 l -1.496172,4.87116 h -6.271636 l 8.621045,-25.7747 h 6.141174 l 5.489018,14.97557 h 14.82946 c 0,0 -0.750244,7.64495 -2.874802,11.28171 -2.204919,3.77432 -4.102733,6.53226 -10.472134,10.17778 -6.369398,3.64553 -17.600606,1.26612 -20.480002,-0.32382 -2.879396,-1.58994 -7.861397,-5.23836 -10.227967,-11.15653 -2.366567,-5.91818 -3.152631,-12.75645 -0.647864,-19.36948 2.504766,-6.61301 6.259797,-10.09564 11.328024,-12.79114 5.068227,-2.6955 14.100536,-2.78288 19.443805,-0.27014 5.343273,2.51275 9.385034,7.68359 9.385034,7.68359 z"
       id="path1650"
       sodipodi:nodetypes="csssssccccccccccccssssssscc" /><path
       style="font-variation-settings:normal;opacity:1;vector-effect:none;fill:#ffffff;fill-opacity:1;stroke:#1b8028;stroke-width:0.264583;stroke-linecap:round;stroke-linejoin:round;stroke-miterlimit:4;stroke-dasharray:none;stroke-dashoffset:0;stroke-opacity:1;-inkscape-stroke:none;stop-color:#000000;stop-opacity:1"
       d="m 53.127143,132.53109 h 4.638862 l -2.365138,-6.88079 z"
       id="path1652"
       sodipodi:nodetypes="cccc" /></g></svg>
